<?xml version="1.0" encoding="UTF-8" standalone="no"?>
<!-- Generator: Adobe Illustrator 22.1.0, SVG Export Plug-In . SVG Version: 6.00 Build 0)  -->

<svg
   version="1.1"
   id="Calque_1"
   x="0px"
   y="0px"
   viewBox="0 0 201.55105 154.97871"
   xml:space="preserve"
   sodipodi:docname="bluehats-logo-single-outline.svg"
   inkscape:version="1.2.2 (b0a8486541, 2022-12-01)"
   inkscape:export-filename="bluehats-logo-single.png"
   inkscape:export-xdpi="201.65991"
   inkscape:export-ydpi="201.65991"
   width="201.55106"
   height="154.97871"
   xmlns:inkscape="http://www.inkscape.org/namespaces/inkscape"
   xmlns:sodipodi="http://sodipodi.sourceforge.net/DTD/sodipodi-0.dtd"
   xmlns:xlink="http://www.w3.org/1999/xlink"
   xmlns="http://www.w3.org/2000/svg"
   xmlns:svg="http://www.w3.org/2000/svg"><defs
   id="defs59"><linearGradient
     inkscape:collect="always"
     id="linearGradient1868"><stop
       style="stop-color:#164194;stop-opacity:1;"
       offset="0"
       id="stop1864" /><stop
       style="stop-color:#1b98e0;stop-opacity:1;"
       offset="1"
       id="stop1866" /></linearGradient><linearGradient
     inkscape:collect="always"
     id="linearGradient383"><stop
       style="stop-color:#164194;stop-opacity:1;"
       offset="0"
       id="stop379" /><stop
       style="stop-color:#1b98e0;stop-opacity:1;"
       offset="1"
       id="stop381" /></linearGradient><linearGradient
     inkscape:collect="always"
     xlink:href="#linearGradient383"
     id="linearGradient385"
     x1="146.14122"
     y1="41.311794"
     x2="229.65309"
     y2="137.53734"
     gradientUnits="userSpaceOnUse" /><linearGradient
     inkscape:collect="always"
     xlink:href="#linearGradient1868"
     id="linearGradient1870"
     x1="12.780019"
     y1="192.63062"
     x2="350.57251"
     y2="192.63062"
     gradientUnits="userSpaceOnUse" /></defs><sodipodi:namedview
   id="namedview57"
   pagecolor="#ffffff"
   bordercolor="#000000"
   borderopacity="0.25"
   inkscape:showpageshadow="2"
   inkscape:pageopacity="0.0"
   inkscape:pagecheckerboard="0"
   inkscape:deskcolor="#d1d1d1"
   showgrid="false"
   showguides="true"
   inkscape:zoom="1.303574"
   inkscape:cx="113.91758"
   inkscape:cy="-102.79431"
   inkscape:window-width="1680"
   inkscape:window-height="1013"
   inkscape:window-x="0"
   inkscape:window-y="0"
   inkscape:window-maximized="1"
   inkscape:current-layer="Calque_1"><sodipodi:guide
     position="-2.9579249e-07,266.74803"
     orientation="112.10221,0"
     id="guide9343"
     inkscape:locked="false" /><sodipodi:guide
     position="-2.9579249e-07,154.64582"
     orientation="0,201.55106"
     id="guide9345"
     inkscape:locked="false" /><sodipodi:guide
     position="201.55105,154.64582"
     orientation="-112.10221,0"
     id="guide9347"
     inkscape:locked="false" /><sodipodi:guide
     position="201.55105,266.74803"
     orientation="0,-201.55106"
     id="guide9349"
     inkscape:locked="false" /><sodipodi:guide
     position="-68.025044,250.31755"
     orientation="70.310053,0"
     id="guide9379"
     inkscape:locked="false" /><sodipodi:guide
     position="-68.025044,180.0075"
     orientation="0,126.41201"
     id="guide9381"
     inkscape:locked="false" /><sodipodi:guide
     position="58.386962,180.0075"
     orientation="-70.310053,0"
     id="guide9383"
     inkscape:locked="false" /><sodipodi:guide
     position="58.386962,250.31755"
     orientation="0,-126.41201"
     id="guide9385"
     inkscape:locked="false" /><sodipodi:guide
     position="143.51276,250.64617"
     orientation="70.310053,0"
     id="guide9389"
     inkscape:locked="false" /><sodipodi:guide
     position="269.92476,180.33612"
     orientation="-70.310053,0"
     id="guide9393"
     inkscape:locked="false" /><sodipodi:guide
     position="269.90642,250.26621"
     orientation="0,-126.41201"
     id="guide9395"
     inkscape:locked="false" /></sodipodi:namedview>
<style
   type="text/css"
   id="style2">
	.st0{fill:#164194;}
	.st1{fill:#FFFFFF;}
</style>
<g
   id="g20"
   inkscape:label="text"
   transform="matrix(0.59679441,0,0,0.59679441,-7.7340492,21.475807)"
   style="fill-opacity:1;fill:url(#linearGradient1870)">
	<path
   class="st0"
   d="m 43.5,219.7 c -2.4,2.4 -6.3,3.9 -11,3.9 -5,0 -9,-1.2 -12.7,-5.9 v 5.4 H 13.2 V 158 h 6.6 v 25.3 c 3.7,-4.7 7.8,-5.8 12.7,-5.8 4.7,0 8.6,1.6 11,3.9 4.5,4.5 5.5,11.9 5.5,19.1 0,7.2 -1.1,14.6 -5.5,19.2 z M 31.1,183.4 c -9.9,0 -11.3,8.4 -11.3,17.2 0,8.8 1.5,17.2 11.3,17.2 9.8,0 11.2,-8.4 11.2,-17.2 0,-8.8 -1.4,-17.2 -11.2,-17.2 z"
   id="path4"
   style="fill-opacity:1;fill:url(#linearGradient1870)" />
	<path
   class="st0"
   d="m 74.3,223.1 c -7.9,0 -11.4,-5.1 -11.4,-12 V 158 h 6.6 v 52.9 c 0,4.4 1.5,6.6 6,6.6 H 79 v 5.7 h -4.7 z"
   id="path6"
   style="fill-opacity:1;fill:url(#linearGradient1870)" />
	<path
   class="st0"
   d="m 118.4,223.1 v -5 c -3.2,3.7 -7.7,5.6 -12.7,5.6 -4.8,0 -8.9,-1.5 -11.6,-4.2 -3.2,-3.1 -4.6,-7.4 -4.6,-12.6 V 178.2 H 96 v 27.7 c 0,8 4.2,12 11,12 6.8,0 11.2,-4.1 11.2,-12 v -27.7 h 6.6 v 45 h -6.4 z"
   id="path8"
   style="fill-opacity:1;fill:url(#linearGradient1870)" />
	<path
   class="st0"
   d="m 145.4,202.3 c 0,9.9 4.6,15.5 13.3,15.5 5.2,0 8.2,-1.6 11.8,-5.1 l 4.5,3.9 c -4.6,4.6 -8.9,7 -16.5,7 -12,0 -19.7,-7.1 -19.7,-23 0,-14.6 7,-23 18.5,-23 11.7,0 18.5,8.3 18.5,21.9 v 2.9 h -30.4 z m 22.4,-12.4 c -1.9,-4.1 -5.7,-6.8 -10.5,-6.8 -4.8,0 -8.6,2.7 -10.5,6.8 -1.1,2.4 -1.2,3.8 -1.4,7.5 h 23.9 c -0.3,-3.7 -0.4,-5.1 -1.5,-7.5 z"
   id="path10"
   style="fill-opacity:1;fill:url(#linearGradient1870)" />
	<path
   class="st1"
   d="m 219.7,223.1 v -27.3 c 0,-8.5 -4.3,-13.2 -12.2,-13.2 -7.9,0 -12.4,4.8 -12.4,13.2 v 27.3 h -4.7 V 158 h 4.7 v 26.2 c 3.3,-3.8 7.7,-5.8 13,-5.8 10.1,0 16.3,6.3 16.3,16.5 v 28.2 z"
   id="path12"
   style="fill-opacity:1;fill:url(#linearGradient1870)" />
	<path
   class="st1"
   d="m 267.4,223.1 v -4.4 c -3.8,3.7 -7.2,4.9 -13.4,4.9 -6.5,0 -10.2,-1.1 -13,-4 -2,-2.1 -3.2,-5.3 -3.2,-8.6 0,-8 5.8,-12.7 15.4,-12.7 h 14.3 v -4.9 c 0,-7 -3.5,-10.8 -12.4,-10.8 -6.2,0 -9.4,1.6 -12.2,5.6 l -3.4,-2.9 c 3.7,-5.2 8.4,-6.8 15.5,-6.8 11.6,0 17.1,5.2 17.1,14.5 v 30.2 h -4.7 z m 0,-21 h -13.7 c -7.6,0 -11.2,3 -11.2,8.9 0,5.9 3.6,8.6 11.5,8.6 4,0 7.9,-0.4 11,-3.4 1.6,-1.6 2.5,-4.3 2.5,-8.4 v -5.7 z"
   id="path14"
   style="fill-opacity:1;fill:url(#linearGradient1870)" />
	<path
   class="st1"
   d="m 301.2,223.1 c -7,0 -10.6,-4.8 -10.6,-11.5 v -29.1 h -6 V 179 h 6 v -14.1 h 4.7 V 179 h 10 v 3.5 h -10 v 29.2 c 0,4.6 2.1,7.3 6.8,7.3 h 3.2 v 4.1 z"
   id="path16"
   style="fill-opacity:1;fill:url(#linearGradient1870)" />
	<path
   class="st1"
   d="m 332.7,223.6 c -7.7,0 -13.4,-2 -17.8,-6.3 l 3.2,-3.2 c 3.5,3.7 8.1,5.4 14.5,5.4 8.6,0 13.3,-3 13.3,-9 0,-4.6 -2.7,-6.9 -8.4,-7.4 l -7.3,-0.6 c -8.9,-0.7 -13.3,-4.7 -13.3,-11.5 0,-7.6 6.2,-12.5 15.8,-12.5 6,0 11.6,1.7 15.5,4.7 l -3.1,3.1 c -3.4,-2.5 -7.5,-3.8 -12.3,-3.8 -7.2,0 -11.2,3.1 -11.2,8.5 0,4.6 2.7,6.9 9,7.4 l 7.1,0.6 c 7.3,0.6 12.9,2.9 12.9,11.5 -0.2,8.1 -7.1,13.1 -17.9,13.1 z"
   id="path18"
   style="fill-opacity:1;fill:url(#linearGradient1870)" />
</g>

<g
   id="g3881"
   style="display:inline"
   inkscape:label="hat"
   transform="translate(-86.921057,-33.383914)"><path
     id="path32"
     style="display:inline;fill:url(#linearGradient385);stroke-width:1.58979;fill-opacity:1"
     class="st1"
     sodipodi:type="inkscape:offset"
     inkscape:radius="0.69999999"
     inkscape:original="M 153.61719 35.6875 C 143.28363 35.6875 135.33546 43.794268 133.42773 56.353516 L 127.22656 92.283203 L 128.6582 92.601562 C 153.29976 100.07351 183.02737 103.57065 212.2793 102.29883 C 185.57102 107.06816 150.43739 103.41178 128.81641 95.462891 L 128.49805 95.462891 L 128.02148 95.621094 C 103.53889 100.07247 89.548828 108.02263 89.548828 117.40234 C 89.548828 132.18727 133.42682 144.26953 187.32031 144.26953 C 241.69072 144.26953 285.88672 132.18651 285.88672 117.56055 C 285.88672 108.33982 272.21503 100.54981 248.52734 95.939453 L 242.00977 56.513672 C 240.10204 43.636468 231.99291 35.6875 221.02344 35.6875 L 153.61719 35.6875 z M 153.45898 38.548828 L 221.02344 38.548828 C 232.15189 38.548828 237.55826 47.928094 238.83008 56.671875 L 245.82422 98.324219 L 246.9375 98.482422 C 268.71746 102.61585 282.70703 109.92921 282.70703 117.24219 C 282.70703 128.37064 241.85048 140.92969 187.16211 140.92969 C 131.3609 140.92969 92.570312 128.52962 92.570312 117.24219 C 92.570312 109.92921 106.55948 102.61703 128.02148 98.642578 C 155.0477 108.34021 201.94643 111.67768 228.97266 100.86719 L 240.10156 96.576172 L 228.33594 97.847656 C 194.79162 101.34517 159.34062 98.483238 130.72461 89.898438 L 136.44727 56.671875 C 138.19603 45.702406 144.87416 38.548828 153.45898 38.548828 z "
     d="m 153.61719,34.988281 c -10.69967,0 -18.9365,8.459337 -20.88086,21.259766 l -6.19922,35.916015 a 0.70006999,0.70006999 0 0 0 0.53711,0.802735 l 1.42578,0.316406 0.006,0.002 c 20.83001,6.309979 45.248,9.745754 69.94922,9.921874 -24.03593,1.75325 -51.46059,-1.80631 -69.39649,-8.400389 a 0.70006999,0.70006999 0 0 0 -0.24218,-0.04297 h -0.31836 a 0.70006999,0.70006999 0 0 0 -0.22071,0.03516 l -0.43359,0.144531 c -12.26385,2.23387 -21.92611,5.338211 -28.583984,9.111331 -6.66798,3.77884 -10.410157,8.30978 -10.410157,13.34765 0,4.04247 2.962598,7.74848 8.015625,11.02344 5.053026,3.27496 12.277026,6.18255 21.173826,8.62891 17.79362,4.89272 42.2822,7.91406 69.28125,7.91406 27.23706,0 51.92381,-3.02011 69.85547,-7.89258 8.96583,-2.43623 16.24218,-5.33054 21.33203,-8.58203 5.08986,-3.25149 8.07813,-6.92457 8.07813,-10.93359 0,-4.95633 -3.65899,-9.4075 -10.14649,-13.14649 -6.39521,-3.6858 -15.64634,-6.750885 -27.29883,-9.054685 l -6.4375,-38.949219 -0.002,-0.0059 C 240.75566,43.287585 232.32927,34.988281 221.02344,34.988281 Z m -0.15821,4.259766 h 67.56446 c 5.36756,0 9.27299,2.227889 12.06445,5.535156 2.79146,3.307267 4.42812,7.722876 5.04883,11.990235 a 0.70006999,0.70006999 0 0 0 0.004,0.01367 l 6.99415,41.652344 a 0.70006999,0.70006999 0 0 0 0.59179,0.578125 l 1.09571,0.15625 c 10.83517,2.057492 19.72012,4.907552 25.84179,8.115232 3.06239,1.60466 5.43103,3.30056 7.00391,4.99414 1.57288,1.69359 2.33984,3.35392 2.33984,4.95899 0,1.17689 -0.54047,2.42952 -1.6914,3.7539 -1.15094,1.32439 -2.90285,2.69174 -5.20118,4.03711 -4.59665,2.69075 -11.36609,5.29395 -19.85156,7.54883 -16.97093,4.50976 -40.81096,7.64844 -68.10156,7.64844 -27.84875,0 -51.4493,-3.09941 -68.03906,-7.58789 -8.29489,-2.24424 -14.83834,-4.84085 -19.255862,-7.53516 -4.417521,-2.6943 -6.597657,-5.44431 -6.597657,-7.86523 0,-1.60507 0.767968,-3.26607 2.335938,-4.95703 1.567969,-1.69096 3.924611,-3.3802 6.966801,-4.97461 6.05329,-3.17255 14.81133,-5.97072 25.41992,-7.947269 27.24601,9.713739 73.96373,13.059819 101.23242,2.156249 l 0.008,-0.002 11.1211,-4.289064 a 0.70006999,0.70006999 0 0 0 -0.32813,-1.347657 l -11.76562,1.271485 c -33.22604,3.463826 -68.33415,0.6524 -96.73633,-7.763672 l 5.61328,-32.597656 a 0.70006999,0.70006999 0 0 0 0.002,-0.0098 c 1.71259,-10.742586 8.12436,-17.533203 16.32031,-17.533203 z"
     transform="matrix(1.019292,0,0,1.019292,-3.6426383,-2.2793608)"
     inkscape:label="stroke" /></g></svg>
